<svg width="107" height="40" viewBox="0 0 107 40" fill="none" xmlns="http://www.w3.org/2000/svg">
<path d="M17.25 14.3594H11.1406V12.4844C11.1406 11.6094 11.0625 11.0521 10.9062 10.8125C10.75 10.5729 10.4896 10.4531 10.125 10.4531C9.72917 10.4531 9.42708 10.6146 9.21875 10.9375C9.02083 11.2604 8.92188 11.75 8.92188 12.4062C8.92188 13.25 9.03646 13.8854 9.26562 14.3125C9.48438 14.7396 10.1042 15.2552 11.125 15.8594C14.0521 17.599 15.8958 19.026 16.6562 20.1406C17.4167 21.2552 17.7969 23.0521 17.7969 25.5312C17.7969 27.3333 17.5833 28.6615 17.1562 29.5156C16.7396 30.3698 15.9271 31.0885 14.7188 31.6719C13.5104 32.2448 12.1042 32.5312 10.5 32.5312C8.73958 32.5312 7.23438 32.1979 5.98438 31.5312C4.74479 30.8646 3.93229 30.0156 3.54688 28.9844C3.16146 27.9531 2.96875 26.4896 2.96875 24.5938V22.9375H9.07812V26.0156C9.07812 26.9635 9.16146 27.5729 9.32812 27.8438C9.50521 28.1146 9.8125 28.25 10.25 28.25C10.6875 28.25 11.0104 28.0781 11.2188 27.7344C11.4375 27.3906 11.5469 26.8802 11.5469 26.2031C11.5469 24.7135 11.3438 23.7396 10.9375 23.2812C10.5208 22.8229 9.49479 22.0573 7.85938 20.9844C6.22396 19.901 5.14062 19.1146 4.60938 18.625C4.07812 18.1354 3.63542 17.4583 3.28125 16.5938C2.9375 15.7292 2.76562 14.625 2.76562 13.2812C2.76562 11.3438 3.01042 9.92708 3.5 9.03125C4 8.13542 4.80208 7.4375 5.90625 6.9375C7.01042 6.42708 8.34375 6.17188 9.90625 6.17188C11.6146 6.17188 13.0677 6.44792 14.2656 7C15.474 7.55208 16.2708 8.25 16.6562 9.09375C17.0521 9.92708 17.25 11.349 17.25 13.3594V14.3594ZM20.835 6.70312H31.8037V11.7656H27.4131V16.5625H31.5225V21.375H27.4131V26.9375H32.2412V32H20.835V6.70312ZM50.4669 17.7344H43.8888V13.3281C43.8888 12.0469 43.8158 11.25 43.67 10.9375C43.5346 10.6146 43.2273 10.4531 42.7481 10.4531C42.2065 10.4531 41.8627 10.6458 41.7169 11.0312C41.571 11.4167 41.4981 12.25 41.4981 13.5312V25.2812C41.4981 26.5104 41.571 27.3125 41.7169 27.6875C41.8627 28.0625 42.1908 28.25 42.7013 28.25C43.1908 28.25 43.5085 28.0625 43.6544 27.6875C43.8106 27.3125 43.8888 26.4323 43.8888 25.0469V21.875H50.4669V22.8594C50.4669 25.474 50.2794 27.3281 49.9044 28.4219C49.5398 29.5156 48.7221 30.474 47.4513 31.2969C46.1908 32.1198 44.6335 32.5312 42.7794 32.5312C40.8523 32.5312 39.2638 32.1823 38.0138 31.4844C36.7638 30.7865 35.9356 29.8229 35.5294 28.5938C35.1231 27.3542 34.92 25.4948 34.92 23.0156V15.625C34.92 13.8021 34.9825 12.4375 35.1075 11.5312C35.2325 10.6146 35.6023 9.73438 36.2169 8.89062C36.8419 8.04688 37.7013 7.38542 38.795 6.90625C39.8992 6.41667 41.1648 6.17188 42.5919 6.17188C44.5294 6.17188 46.1283 6.54688 47.3888 7.29688C48.6492 8.04688 49.4773 8.98438 49.8731 10.1094C50.269 11.224 50.4669 12.9635 50.4669 15.3281V17.7344ZM67.0363 6.70312V11.7656H63.13V32H56.5519V11.7656H52.6613V6.70312H67.0363ZM84.5275 21.5156C84.5275 24.0573 84.465 25.8594 84.34 26.9219C84.2254 27.974 83.8504 28.9375 83.215 29.8125C82.59 30.6875 81.741 31.3594 80.6681 31.8281C79.5952 32.2969 78.3452 32.5312 76.9181 32.5312C75.564 32.5312 74.3452 32.3125 73.2619 31.875C72.189 31.4271 71.3244 30.7604 70.6681 29.875C70.0119 28.9896 69.6212 28.026 69.4962 26.9844C69.3712 25.9427 69.3087 24.1198 69.3087 21.5156V17.1875C69.3087 14.6458 69.366 12.849 69.4806 11.7969C69.6056 10.7344 69.9806 9.76562 70.6056 8.89062C71.241 8.01562 72.0952 7.34375 73.1681 6.875C74.241 6.40625 75.491 6.17188 76.9181 6.17188C78.2723 6.17188 79.4858 6.39583 80.5587 6.84375C81.6421 7.28125 82.5119 7.94271 83.1681 8.82812C83.8244 9.71354 84.215 10.6771 84.34 11.7188C84.465 12.7604 84.5275 14.5833 84.5275 17.1875V21.5156ZM77.9494 13.2031C77.9494 12.026 77.8817 11.276 77.7462 10.9531C77.6212 10.6198 77.3556 10.4531 76.9494 10.4531C76.6056 10.4531 76.34 10.5885 76.1525 10.8594C75.9754 11.1198 75.8869 11.901 75.8869 13.2031V25.0156C75.8869 26.4844 75.9442 27.3906 76.0587 27.7344C76.1837 28.0781 76.465 28.25 76.9025 28.25C77.3504 28.25 77.6369 28.0521 77.7619 27.6562C77.8869 27.2604 77.9494 26.3177 77.9494 24.8281V13.2031ZM87.9563 6.70312H92.6125C95.7167 6.70312 97.8156 6.82292 98.9094 7.0625C100.014 7.30208 100.909 7.91667 101.597 8.90625C102.295 9.88542 102.644 11.4531 102.644 13.6094C102.644 15.5781 102.399 16.901 101.909 17.5781C101.42 18.2552 100.456 18.6615 99.0188 18.7969C100.321 19.1198 101.196 19.5521 101.644 20.0938C102.092 20.6354 102.368 21.1354 102.472 21.5938C102.586 22.0417 102.644 23.2865 102.644 25.3281V32H96.5344V23.5938C96.5344 22.2396 96.425 21.401 96.2063 21.0781C95.9979 20.7552 95.4406 20.5938 94.5344 20.5938V32H87.9563V6.70312ZM94.5344 11.0312V16.6562C95.274 16.6562 95.7896 16.5573 96.0813 16.3594C96.3833 16.151 96.5344 15.4896 96.5344 14.375V12.9844C96.5344 12.1823 96.3885 11.6562 96.0969 11.4062C95.8156 11.1562 95.2948 11.0312 94.5344 11.0312Z" fill="black"/>
<path d="M17.25 14.3594V16.3594H19.25V14.3594H17.25ZM11.1406 14.3594H9.14062V16.3594H11.1406V14.3594ZM9.21875 10.9375L7.53816 9.85325L7.52563 9.87267L7.51355 9.89238L9.21875 10.9375ZM9.26562 14.3125L11.0457 13.4007L11.037 13.3837L11.0279 13.3669L9.26562 14.3125ZM11.125 15.8594L12.1468 14.1401L12.1436 14.1382L11.125 15.8594ZM17.1562 29.5156L15.3674 28.6212L15.363 28.63L15.3587 28.6388L17.1562 29.5156ZM14.7188 31.6719L15.5756 33.4791L15.5882 33.473L14.7188 31.6719ZM5.98438 31.5312L5.03705 33.2927L5.0432 33.296L5.98438 31.5312ZM2.96875 22.9375V20.9375H0.96875V22.9375H2.96875ZM9.07812 22.9375H11.0781V20.9375H9.07812V22.9375ZM9.32812 27.8438L7.62481 28.8919L7.63918 28.9153L7.65419 28.9382L9.32812 27.8438ZM11.2188 27.7344L9.53143 26.6606L9.51969 26.6791L9.50835 26.6978L11.2188 27.7344ZM10.9375 23.2812L12.4342 21.9546L12.4258 21.9452L12.4174 21.9359L10.9375 23.2812ZM7.85938 20.9844L6.75487 22.6518L6.76229 22.6566L7.85938 20.9844ZM3.28125 16.5938L1.42276 17.3327L1.42658 17.3423L1.43051 17.3519L3.28125 16.5938ZM3.5 9.03125L1.7536 8.05652L1.74926 8.0643L1.74499 8.07212L3.5 9.03125ZM5.90625 6.9375L6.73127 8.75941L6.73837 8.75619L6.74545 8.75292L5.90625 6.9375ZM14.2656 7L13.4285 8.81639L13.4345 8.81912L14.2656 7ZM16.6562 9.09375L14.8371 9.92474L14.8433 9.93835L14.8497 9.95186L16.6562 9.09375ZM17.25 12.3594H11.1406V16.3594H17.25V12.3594ZM13.1406 14.3594V12.4844H9.14062V14.3594H13.1406ZM13.1406 12.4844C13.1406 11.9989 13.1196 11.5389 13.0627 11.1325C13.0148 10.7911 12.9105 10.2245 12.5815 9.71996L9.23103 11.905C9.12742 11.7462 9.09327 11.627 9.09006 11.6161C9.084 11.5955 9.09103 11.6139 9.1014 11.6878C9.12255 11.8387 9.14062 12.0949 9.14062 12.4844H13.1406ZM12.5815 9.71996C11.9544 8.75848 10.9556 8.45312 10.125 8.45312V12.4531C10.0945 12.4531 9.95095 12.4487 9.75794 12.36C9.54644 12.2627 9.35931 12.1017 9.23103 11.905L12.5815 9.71996ZM10.125 8.45312C9.07446 8.45312 8.12797 8.93903 7.53816 9.85325L10.8993 12.0218C10.8422 12.1104 10.7281 12.2399 10.5443 12.3381C10.363 12.435 10.2045 12.4531 10.125 12.4531V8.45312ZM7.51355 9.89238C7.02829 10.6841 6.92188 11.618 6.92188 12.4062H10.9219C10.9219 12.1724 10.9401 12.0242 10.9564 11.9431C10.9735 11.8589 10.9794 11.8921 10.924 11.9826L7.51355 9.89238ZM6.92188 12.4062C6.92188 13.3685 7.04189 14.3982 7.5033 15.2581L11.0279 13.3669C11.0393 13.388 11.0077 13.3361 10.9761 13.1607C10.9452 12.9894 10.9219 12.7431 10.9219 12.4062H6.92188ZM7.48554 15.2243C7.77414 15.7877 8.22026 16.2283 8.61543 16.557C9.03548 16.9065 9.54281 17.247 10.1064 17.5805L12.1436 14.1382C11.6864 13.8676 11.3734 13.6482 11.1736 13.482C10.949 13.2952 10.9759 13.2644 11.0457 13.4007L7.48554 15.2243ZM10.1032 17.5787C11.5254 18.4239 12.6436 19.1694 13.479 19.816C14.3372 20.4803 14.7974 20.9648 15.0041 21.2678L18.3084 19.0135C17.7546 18.2018 16.9128 17.4156 15.9273 16.6528C14.9189 15.8723 13.6517 15.0345 12.1468 14.1401L10.1032 17.5787ZM15.0041 21.2678C15.4162 21.8718 15.7969 23.1638 15.7969 25.5312H19.7969C19.7969 22.9404 19.4171 20.6386 18.3084 19.0135L15.0041 21.2678ZM15.7969 25.5312C15.7969 27.2515 15.5806 28.1948 15.3674 28.6212L18.9451 30.4101C19.5861 29.1281 19.7969 27.4152 19.7969 25.5312H15.7969ZM15.3587 28.6388C15.2057 28.9524 14.8162 29.404 13.8493 29.8708L15.5882 33.473C17.038 32.7731 18.2734 31.7872 18.9538 30.3925L15.3587 28.6388ZM13.8619 29.8647C12.9695 30.2878 11.8661 30.5312 10.5 30.5312V34.5312C12.3422 34.5312 14.0513 34.2017 15.5756 33.479L13.8619 29.8647ZM10.5 30.5312C8.98952 30.5312 7.82386 30.2456 6.92555 29.7665L5.0432 33.296C6.64489 34.1502 8.48965 34.5312 10.5 34.5312V30.5312ZM6.93169 29.7698C5.99699 29.2671 5.5929 28.746 5.42031 28.2842L1.67344 29.6845C2.27168 31.2852 3.49259 32.462 5.03706 33.2927L6.93169 29.7698ZM5.42031 28.2842C5.15801 27.5824 4.96875 26.3975 4.96875 24.5938H0.96875C0.96875 26.5817 1.16491 28.3239 1.67344 29.6845L5.42031 28.2842ZM4.96875 24.5938V22.9375H0.96875V24.5938H4.96875ZM2.96875 24.9375H9.07812V20.9375H2.96875V24.9375ZM7.07812 22.9375V26.0156H11.0781V22.9375H7.07812ZM7.07812 26.0156C7.07812 26.5374 7.10043 27.0258 7.15907 27.4546C7.20975 27.8252 7.31521 28.3888 7.62481 28.8919L11.0314 26.7956C11.0776 26.8706 11.1052 26.9313 11.1199 26.9672C11.1349 27.0038 11.1415 27.0267 11.1427 27.0307C11.1441 27.0357 11.1343 27.0014 11.1222 26.9126C11.0975 26.732 11.0781 26.4418 11.0781 26.0156H7.07812ZM7.65419 28.9382C8.32457 29.9635 9.40041 30.25 10.25 30.25V26.25C10.2286 26.25 10.3329 26.2456 10.4979 26.3183C10.6844 26.4004 10.8705 26.548 11.0021 26.7493L7.65419 28.9382ZM10.25 30.25C11.3123 30.25 12.3213 29.7739 12.9291 28.771L9.50835 26.6978C9.5718 26.5931 9.69338 26.4553 9.88061 26.3556C10.0601 26.2601 10.205 26.25 10.25 26.25V30.25ZM12.9061 28.8081C13.4233 27.9953 13.5469 27.0351 13.5469 26.2031H9.54688C9.54688 26.4399 9.52721 26.5908 9.50924 26.6747C9.49101 26.7597 9.48295 26.7368 9.53143 26.6606L12.9061 28.8081ZM13.5469 26.2031C13.5469 25.3817 13.4921 24.617 13.3524 23.9471C13.2195 23.3099 12.9702 22.5594 12.4342 21.9546L9.44081 24.6079C9.31105 24.4615 9.36644 24.4271 9.43666 24.7638C9.50009 25.0679 9.54688 25.535 9.54688 26.2031H13.5469ZM12.4174 21.9359C11.7994 21.2561 10.5468 20.3555 8.95646 19.3121L6.76229 22.6566C8.44277 23.7591 9.24227 24.3897 9.45762 24.6266L12.4174 21.9359ZM8.96387 19.317C7.31593 18.2254 6.36191 17.5203 5.96474 17.1543L3.25401 20.0957C3.91934 20.7089 5.13199 21.5767 6.75488 22.6517L8.96387 19.317ZM5.96474 17.1543C5.7022 16.9123 5.40648 16.5057 5.13199 15.8356L1.43051 17.3519C1.86436 18.411 2.45405 19.3585 3.25401 20.0957L5.96474 17.1543ZM5.13974 15.8548C4.92121 15.3052 4.76562 14.475 4.76562 13.2812H0.765625C0.765625 14.775 0.953794 16.1532 1.42276 17.3327L5.13974 15.8548ZM4.76562 13.2812C4.76562 11.4282 5.0142 10.431 5.25501 9.99038L1.74499 8.07212C1.00663 9.42315 0.765625 11.2593 0.765625 13.2812H4.76562ZM5.2464 10.006C5.50189 9.54822 5.94397 9.11592 6.73127 8.75941L5.08123 5.11559C3.6602 5.75908 2.49811 6.72261 1.7536 8.05652L5.2464 10.006ZM6.74545 8.75292C7.52293 8.39352 8.55414 8.17188 9.90625 8.17188V4.17188C8.13336 4.17188 6.49791 4.46065 5.06705 5.12208L6.74545 8.75292ZM9.90625 8.17188C11.4075 8.17188 12.5585 8.41542 13.4285 8.81638L15.1027 5.18362C13.5769 4.48041 11.8217 4.17188 9.90625 4.17188V8.17188ZM13.4345 8.81912C14.3917 9.25645 14.7227 9.67438 14.8371 9.92474L18.4754 8.26276C17.819 6.82562 16.5563 5.84771 15.0968 5.18088L13.4345 8.81912ZM14.8497 9.95186C15.0385 10.3494 15.25 11.3759 15.25 13.3594H19.25C19.25 11.322 19.0656 9.50476 18.4628 8.23564L14.8497 9.95186ZM15.25 13.3594V14.3594H19.25V13.3594H15.25ZM20.835 6.70312V4.70312H18.835V6.70312H20.835ZM31.8037 6.70312H33.8037V4.70312H31.8037V6.70312ZM31.8037 11.7656V13.7656H33.8037V11.7656H31.8037ZM27.4131 11.7656V9.76562H25.4131V11.7656H27.4131ZM27.4131 16.5625H25.4131V18.5625H27.4131V16.5625ZM31.5225 16.5625H33.5225V14.5625H31.5225V16.5625ZM31.5225 21.375V23.375H33.5225V21.375H31.5225ZM27.4131 21.375V19.375H25.4131V21.375H27.4131ZM27.4131 26.9375H25.4131V28.9375H27.4131V26.9375ZM32.2412 26.9375H34.2412V24.9375H32.2412V26.9375ZM32.2412 32V34H34.2412V32H32.2412ZM20.835 32H18.835V34H20.835V32ZM20.835 8.70312H31.8037V4.70312H20.835V8.70312ZM29.8037 6.70312V11.7656H33.8037V6.70312H29.8037ZM31.8037 9.76562H27.4131V13.7656H31.8037V9.76562ZM25.4131 11.7656V16.5625H29.4131V11.7656H25.4131ZM27.4131 18.5625H31.5225V14.5625H27.4131V18.5625ZM29.5225 16.5625V21.375H33.5225V16.5625H29.5225ZM31.5225 19.375H27.4131V23.375H31.5225V19.375ZM25.4131 21.375V26.9375H29.4131V21.375H25.4131ZM27.4131 28.9375H32.2412V24.9375H27.4131V28.9375ZM30.2412 26.9375V32H34.2412V26.9375H30.2412ZM32.2412 30H20.835V34H32.2412V30ZM22.835 32V6.70312H18.835V32H22.835ZM50.4669 17.7344V19.7344H52.4669V17.7344H50.4669ZM43.8887 17.7344H41.8887V19.7344H43.8887V17.7344ZM43.67 10.9375L41.8256 11.711L41.8409 11.7474L41.8576 11.7833L43.67 10.9375ZM41.7169 11.0312L39.8463 10.3235L41.7169 11.0312ZM41.7169 27.6875L39.8529 28.4124L41.7169 27.6875ZM43.6544 27.6875L41.8082 26.9183L41.799 26.9403L41.7904 26.9626L43.6544 27.6875ZM43.8887 21.875V19.875H41.8887V21.875H43.8887ZM50.4669 21.875H52.4669V19.875H50.4669V21.875ZM49.9044 28.4219L48.0125 27.7732L48.0097 27.7813L48.007 27.7894L49.9044 28.4219ZM47.4512 31.2969L46.3642 29.6181L46.3579 29.6222L47.4512 31.2969ZM35.5294 28.5938L33.6288 29.2166L33.6304 29.2214L35.5294 28.5938ZM35.1075 11.5312L37.0887 11.8045L37.0892 11.8015L35.1075 11.5312ZM36.2169 8.89062L34.6098 7.70017L34.605 7.70661L34.6003 7.7131L36.2169 8.89062ZM38.795 6.90625L39.5976 8.73818L39.6057 8.73458L38.795 6.90625ZM49.8731 10.1094L47.9865 10.7732L47.9884 10.7787L49.8731 10.1094ZM50.4669 15.7344H43.8887V19.7344H50.4669V15.7344ZM45.8887 17.7344V13.3281H41.8887V17.7344H45.8887ZM45.8887 13.3281C45.8887 12.6581 45.87 12.0711 45.8257 11.5873C45.7887 11.1826 45.7164 10.5932 45.4824 10.0917L41.8576 11.7833C41.7964 11.6521 41.7902 11.5824 41.8035 11.6496C41.8133 11.6993 41.8281 11.7955 41.8424 11.9518C41.871 12.2648 41.8887 12.7169 41.8887 13.3281H45.8887ZM45.5144 10.164C45.2687 9.57826 44.837 9.1026 44.2682 8.80373C43.7395 8.52595 43.195 8.45312 42.7481 8.45312V12.4531C42.7805 12.4531 42.6291 12.461 42.4077 12.3447C42.1462 12.2073 41.9358 11.9738 41.8256 11.711L45.5144 10.164ZM42.7481 8.45312C42.2572 8.45312 41.6678 8.53816 41.1061 8.8531C40.5041 9.19053 40.0774 9.7128 39.8463 10.3235L43.5874 11.739C43.5022 11.9643 43.3202 12.1975 43.0621 12.3422C42.844 12.4644 42.6974 12.4531 42.7481 12.4531V8.45312ZM39.8463 10.3235C39.6715 10.7856 39.6 11.3189 39.5604 11.771C39.517 12.2674 39.4981 12.8595 39.4981 13.5312H43.4981C43.4981 12.9218 43.5157 12.4565 43.5452 12.1196C43.5786 11.7384 43.6165 11.6623 43.5874 11.739L39.8463 10.3235ZM39.4981 13.5312V25.2812H43.4981V13.5312H39.4981ZM39.4981 25.2812C39.4981 25.9284 39.517 26.502 39.561 26.9858C39.6011 27.426 39.6739 27.9522 39.8529 28.4124L43.5809 26.9626C43.614 27.0478 43.5775 26.9854 43.5446 26.6236C43.5157 26.3053 43.4981 25.8632 43.4981 25.2812H39.4981ZM39.8529 28.4124C40.0803 28.9973 40.4913 29.5094 41.0801 29.8459C41.6341 30.1624 42.2153 30.25 42.7012 30.25V26.25C42.6768 26.25 42.8387 26.2438 43.0646 26.3729C43.3253 26.5218 43.4993 26.7527 43.5809 26.9626L39.8529 28.4124ZM42.7012 30.25C43.1901 30.25 43.7715 30.1574 44.3232 29.8318C44.9042 29.4889 45.2985 28.9777 45.5184 28.4124L41.7904 26.9626C41.8644 26.7723 42.027 26.5423 42.2902 26.387C42.4063 26.3184 42.5104 26.2837 42.5837 26.2667C42.6551 26.2501 42.698 26.25 42.7012 26.25V30.25ZM45.5005 28.4567C45.7056 27.9646 45.7813 27.3852 45.8223 26.9229C45.8687 26.4009 45.8887 25.7696 45.8887 25.0469H41.8887C41.8887 25.7096 41.8698 26.2111 41.838 26.5693C41.8221 26.7478 41.8049 26.8692 41.7909 26.9444C41.7745 27.0321 41.7719 27.0056 41.8082 26.9183L45.5005 28.4567ZM45.8887 25.0469V21.875H41.8887V25.0469H45.8887ZM43.8887 23.875H50.4669V19.875H43.8887V23.875ZM48.4669 21.875V22.8594H52.4669V21.875H48.4669ZM48.4669 22.8594C48.4669 25.4607 48.2704 27.021 48.0125 27.7732L51.7963 29.0705C52.2883 27.6353 52.4669 25.4872 52.4669 22.8594H48.4669ZM48.007 27.7894C47.8255 28.334 47.3741 28.9641 46.3642 29.6181L48.5383 32.9756C50.0701 31.9838 51.2541 30.6972 51.8017 29.0543L48.007 27.7894ZM46.3579 29.6222C45.4908 30.1883 44.3356 30.5312 42.7794 30.5312V34.5312C44.9315 34.5312 46.8908 34.0513 48.5446 32.9715L46.3579 29.6222ZM42.7794 30.5312C41.0801 30.5312 39.8552 30.2219 38.9887 29.7381L37.0388 33.2306C38.6723 34.1427 40.6245 34.5312 42.7794 34.5312V30.5312ZM38.9887 29.7381C38.1258 29.2563 37.6603 28.6681 37.4283 27.9661L33.6304 29.2214C34.2109 30.9778 35.4017 32.3166 37.0388 33.2306L38.9887 29.7381ZM37.4299 27.9709C37.1247 27.0397 36.92 25.4377 36.92 23.0156H32.92C32.92 25.5519 33.1215 27.6686 33.6288 29.2166L37.4299 27.9709ZM36.92 23.0156V15.625H32.92V23.0156H36.92ZM36.92 15.625C36.92 13.8226 36.9832 12.5699 37.0887 11.8045L33.1263 11.258C32.9818 12.3051 32.92 13.7816 32.92 15.625H36.92ZM37.0892 11.8015C37.164 11.253 37.3884 10.6791 37.8335 10.0682L34.6003 7.7131C33.8161 8.7896 33.301 9.9762 33.1258 11.261L37.0892 11.8015ZM37.824 10.0811C38.2142 9.55434 38.7788 9.09687 39.5976 8.73816L37.9924 5.07434C36.6237 5.67396 35.4696 6.53941 34.6098 7.70017L37.824 10.0811ZM39.6057 8.73458C40.4125 8.37684 41.394 8.17188 42.5919 8.17188V4.17188C40.9356 4.17188 39.3858 4.45649 37.9843 5.07792L39.6057 8.73458ZM42.5919 8.17188C44.2818 8.17188 45.4991 8.49974 46.366 9.01561L48.4115 5.57814C46.7576 4.59401 44.777 4.17188 42.5919 4.17188V8.17188ZM46.366 9.01561C47.3195 9.58298 47.7795 10.1849 47.9865 10.7732L51.7598 9.44556C51.1751 7.78381 49.9788 6.51077 48.4115 5.57814L46.366 9.01561ZM47.9884 10.7787C48.2647 11.5566 48.4669 13.0107 48.4669 15.3281H52.4669C52.4669 12.9164 52.2732 10.8913 51.7578 9.44005L47.9884 10.7787ZM48.4669 15.3281V17.7344H52.4669V15.3281H48.4669ZM67.0363 6.70312H69.0363V4.70312H67.0363V6.70312ZM67.0363 11.7656V13.7656H69.0363V11.7656H67.0363ZM63.13 11.7656V9.76562H61.13V11.7656H63.13ZM63.13 32V34H65.13V32H63.13ZM56.5519 32H54.5519V34H56.5519V32ZM56.5519 11.7656H58.5519V9.76562H56.5519V11.7656ZM52.6613 11.7656H50.6613V13.7656H52.6613V11.7656ZM52.6613 6.70312V4.70312H50.6613V6.70312H52.6613ZM65.0363 6.70312V11.7656H69.0363V6.70312H65.0363ZM67.0363 9.76562H63.13V13.7656H67.0363V9.76562ZM61.13 11.7656V32H65.13V11.7656H61.13ZM63.13 30H56.5519V34H63.13V30ZM58.5519 32V11.7656H54.5519V32H58.5519ZM56.5519 9.76562H52.6613V13.7656H56.5519V9.76562ZM54.6613 11.7656V6.70312H50.6613V11.7656H54.6613ZM52.6613 8.70312H67.0363V4.70312H52.6613V8.70312ZM84.34 26.9219L82.3537 26.6882L82.3527 26.6968L82.3518 26.7053L84.34 26.9219ZM83.215 29.8125L81.5967 28.6373L81.5921 28.6436L81.5875 28.65L83.215 29.8125ZM73.2619 31.875L72.4914 33.7206L72.5021 33.7251L72.5129 33.7295L73.2619 31.875ZM69.4806 11.7969L67.4943 11.5632L67.4933 11.5718L67.4924 11.5803L69.4806 11.7969ZM70.6056 8.89062L68.9873 7.71543L68.9827 7.72177L68.9782 7.72815L70.6056 8.89062ZM80.5587 6.84375L79.7882 8.68937L79.799 8.69387L79.8098 8.69823L80.5587 6.84375ZM77.7462 10.9531L75.8736 11.6554L75.887 11.6912L75.9019 11.7266L77.7462 10.9531ZM76.1525 10.8594L74.5081 9.72095L74.5033 9.72784L74.4986 9.73475L76.1525 10.8594ZM76.0587 27.7344L74.1614 28.3668L74.1699 28.3925L74.1792 28.4179L76.0587 27.7344ZM77.7619 27.6562L75.8547 27.054L77.7619 27.6562ZM82.5275 21.5156C82.5275 24.056 82.4636 25.7537 82.3537 26.6882L86.3263 27.1556C86.4664 25.965 86.5275 24.0586 86.5275 21.5156H82.5275ZM82.3518 26.7053C82.2757 27.4033 82.0321 28.0377 81.5967 28.6373L84.8333 30.9877C85.6687 29.8373 86.1751 28.5446 86.3282 27.1384L82.3518 26.7053ZM81.5875 28.65C81.191 29.2052 80.6397 29.658 79.8674 29.9954L81.4688 33.6608C82.8424 33.0607 83.989 32.1698 84.8425 30.975L81.5875 28.65ZM79.8674 29.9954C79.0959 30.3325 78.1285 30.5312 76.9181 30.5312V34.5312C78.5619 34.5312 80.0945 34.2613 81.4688 33.6608L79.8674 29.9954ZM76.9181 30.5312C75.7803 30.5312 74.8214 30.3479 74.0108 30.0205L72.5129 33.7295C73.869 34.2771 75.3476 34.5312 76.9181 34.5312V30.5312ZM74.0324 30.0294C73.2731 29.7124 72.7045 29.2637 72.2749 28.6841L69.0613 31.0659C69.9442 32.2571 71.1048 33.1418 72.4914 33.7206L74.0324 30.0294ZM72.2749 28.6841C71.8147 28.0632 71.5635 27.425 71.482 26.7461L67.5105 27.2227C67.679 28.6271 68.209 29.9159 69.0613 31.0659L72.2749 28.6841ZM71.482 26.7461C71.3729 25.8366 71.3087 24.1226 71.3087 21.5156H67.3087C67.3087 24.117 67.3696 26.0488 67.5105 27.2227L71.482 26.7461ZM71.3087 21.5156V17.1875H67.3087V21.5156H71.3087ZM71.3087 17.1875C71.3087 14.6461 71.3672 12.9464 71.4689 12.0134L67.4924 11.5803C67.3648 12.7515 67.3087 14.6455 67.3087 17.1875H71.3087ZM71.4669 12.0306C71.5523 11.3047 71.803 10.6552 72.2331 10.0531L68.9782 7.72815C68.1582 8.87608 67.6589 10.164 67.4943 11.5632L71.4669 12.0306ZM72.2239 10.0658C72.633 9.50251 73.1942 9.04614 73.9688 8.70772L72.3674 5.04228C70.9962 5.64136 69.8491 6.52874 68.9873 7.71543L72.2239 10.0658ZM73.9688 8.70772C74.7403 8.37066 75.7077 8.17188 76.9181 8.17188V4.17188C75.2744 4.17188 73.7418 4.44184 72.3674 5.04228L73.9688 8.70772ZM76.9181 8.17188C78.0508 8.17188 78.9962 8.35873 79.7882 8.68937L81.3292 4.99813C79.9754 4.43294 78.4938 4.17188 76.9181 4.17188V8.17188ZM79.8098 8.69823C80.573 9.00642 81.1378 9.44762 81.5613 10.019L84.7749 7.63722C83.8859 6.4378 82.7112 5.55608 81.3077 4.98927L79.8098 8.69823ZM81.5613 10.019C82.0215 10.6399 82.2728 11.2781 82.3542 11.957L86.3258 11.4805C86.1572 10.0761 85.6272 8.7872 84.7749 7.63722L81.5613 10.019ZM82.3542 11.957C82.4634 12.8665 82.5275 14.5806 82.5275 17.1875H86.5275C86.5275 14.5861 86.4666 12.6543 86.3258 11.4805L82.3542 11.957ZM82.5275 17.1875V21.5156H86.5275V17.1875H82.5275ZM79.9494 13.2031C79.9494 12.5839 79.9319 12.0362 79.8905 11.578C79.8544 11.178 79.7858 10.6451 79.5906 10.1797L75.9019 11.7266C75.8603 11.6274 75.858 11.5837 75.87 11.6474C75.8798 11.6992 75.8936 11.7924 75.9067 11.9376C75.933 12.2294 75.9494 12.6453 75.9494 13.2031H79.9494ZM79.6189 10.2509C79.4243 9.73198 79.0698 9.2313 78.5163 8.884C77.9835 8.54972 77.4192 8.45312 76.9494 8.45312V12.4531C76.8858 12.4531 76.6574 12.4399 76.3903 12.2723C76.1024 12.0916 75.9432 11.8409 75.8736 11.6554L79.6189 10.2509ZM76.9494 8.45312C75.9833 8.45312 75.0881 8.88318 74.5081 9.72095L77.7969 11.9978C77.7224 12.1053 77.5927 12.2386 77.4007 12.3365C77.212 12.4327 77.0448 12.4531 76.9494 12.4531V8.45312ZM74.4986 9.73475C74.2632 10.081 74.1543 10.4387 74.0983 10.6582C74.0348 10.907 73.9942 11.1668 73.966 11.4154C73.9096 11.9133 73.8869 12.5187 73.8869 13.2031H77.8869C77.8869 12.5855 77.9084 12.1492 77.9406 11.8658C77.9567 11.7238 77.9713 11.6581 77.9743 11.6465C77.9847 11.6056 77.9533 11.7679 77.8064 11.984L74.4986 9.73475ZM73.8869 13.2031V25.0156H77.8869V13.2031H73.8869ZM73.8869 25.0156C73.8869 25.7699 73.9014 26.4104 73.9338 26.9231C73.9619 27.3667 74.0122 27.9194 74.1614 28.3668L77.9561 27.1019C77.9849 27.1883 77.98 27.2081 77.9649 27.0987C77.9523 27.0069 77.9383 26.8676 77.9259 26.6707C77.901 26.2771 77.8869 25.7301 77.8869 25.0156H73.8869ZM74.1792 28.4179C74.3785 28.9661 74.7504 29.4792 75.3205 29.8277C75.8621 30.1586 76.433 30.25 76.9025 30.25V26.25C76.9345 26.25 77.146 26.2555 77.4063 26.4145C77.6952 26.5911 77.864 26.8464 77.9383 27.0509L74.1792 28.4179ZM76.9025 30.25C77.4167 30.25 78.0286 30.135 78.5901 29.747C79.1655 29.3495 79.4994 28.7958 79.669 28.2585L75.8547 27.054C75.8994 26.9125 76.0275 26.6557 76.3164 26.4561C76.5915 26.2661 76.8362 26.25 76.9025 26.25V30.25ZM79.669 28.2585C79.8102 27.8114 79.8662 27.2656 79.8981 26.7847C79.9334 26.2517 79.9494 25.5951 79.9494 24.8281H75.9494C75.9494 25.5508 75.934 26.1102 75.9069 26.52C75.8763 26.9818 75.8385 27.1053 75.8547 27.054L79.669 28.2585ZM79.9494 24.8281V13.2031H75.9494V24.8281H79.9494ZM87.9563 6.70312V4.70312H85.9563V6.70312H87.9563ZM98.9094 7.0625L98.4814 9.01618L98.4853 9.01702L98.9094 7.0625ZM101.597 8.90625L99.9544 10.0474L99.9612 10.0573L99.9682 10.0671L101.597 8.90625ZM99.0188 18.7969L98.8312 16.8057L98.5373 20.7381L99.0188 18.7969ZM102.472 21.5938L100.522 22.037L100.528 22.0633L100.534 22.0894L102.472 21.5938ZM102.644 32V34H104.644V32H102.644ZM96.5344 32H94.5344V34H96.5344V32ZM96.2063 21.0781L94.5257 22.1624L94.5378 22.1812L94.5504 22.1998L96.2063 21.0781ZM94.5344 20.5938V18.5938H92.5344V20.5938H94.5344ZM94.5344 32V34H96.5344V32H94.5344ZM87.9563 32H85.9563V34H87.9563V32ZM94.5344 11.0312V9.03125H92.5344V11.0312H94.5344ZM94.5344 16.6562H92.5344V18.6562H94.5344V16.6562ZM96.0813 16.3594L97.2043 18.0143L97.2105 18.0101L97.2167 18.0058L96.0813 16.3594ZM96.0969 11.4062L94.7682 12.9011L94.7816 12.913L94.7953 12.9248L96.0969 11.4062ZM87.9563 8.70312H92.6125V4.70312H87.9563V8.70312ZM92.6125 8.70312C95.741 8.70312 97.6301 8.82969 98.4814 9.01618L99.3373 5.10882C98.0012 4.81614 95.6924 4.70312 92.6125 4.70312V8.70312ZM98.4853 9.01702C99.0602 9.14176 99.5345 9.44299 99.9544 10.0474L103.239 7.76513C102.284 6.39035 100.967 5.46241 99.3335 5.10798L98.4853 9.01702ZM99.9682 10.0671C100.298 10.5303 100.644 11.5801 100.644 13.6094H104.644C104.644 11.3262 104.291 9.24052 103.226 7.74541L99.9682 10.0671ZM100.644 13.6094C100.644 14.5222 100.586 15.214 100.494 15.7142C100.396 16.2419 100.285 16.4109 100.289 16.4062L103.53 18.75C104.023 18.0683 104.28 17.2373 104.427 16.442C104.579 15.6194 104.644 14.6653 104.644 13.6094H100.644ZM100.289 16.4062C100.306 16.3819 100.271 16.4513 100.043 16.5477C99.8048 16.648 99.4184 16.7504 98.8312 16.8057L99.2063 20.7881C100.821 20.636 102.524 20.1407 103.53 18.75L100.289 16.4062ZM98.5373 20.7381C99.0966 20.8768 99.4951 21.0227 99.7657 21.1564C100.042 21.2931 100.113 21.3816 100.102 21.3683L103.185 18.8192C102.31 17.7605 100.895 17.2016 99.5002 16.8557L98.5373 20.7381ZM100.102 21.3683C100.442 21.7783 100.513 21.9976 100.522 22.037L104.422 21.1505C104.223 20.2732 103.742 19.4925 103.185 18.8192L100.102 21.3683ZM100.534 22.0894C100.534 22.0871 100.573 22.3144 100.603 22.9552C100.63 23.534 100.644 24.3213 100.644 25.3281H104.644C104.644 24.2933 104.629 23.4374 104.599 22.7713C104.571 22.1674 104.525 21.5483 104.409 21.0981L100.534 22.0894ZM100.644 25.3281V32H104.644V25.3281H100.644ZM102.644 30H96.5344V34H102.644V30ZM98.5344 32V23.5938H94.5344V32H98.5344ZM98.5344 23.5938C98.5344 22.8749 98.506 22.2308 98.4355 21.6905C98.3771 21.2423 98.2556 20.5374 97.8621 19.9564L94.5504 22.1998C94.4383 22.0343 94.4141 21.9216 94.4251 21.9607C94.4316 21.9837 94.4498 22.0596 94.4691 22.2079C94.5081 22.5062 94.5344 22.9584 94.5344 23.5938H98.5344ZM97.8868 19.9939C97.4161 19.2642 96.7024 18.9427 96.1886 18.7938C95.6574 18.6399 95.0828 18.5938 94.5344 18.5938V22.5938C94.7037 22.5938 94.8335 22.6014 94.9293 22.612C95.027 22.6227 95.0712 22.6346 95.0755 22.6358C95.0819 22.6377 95.0161 22.6202 94.9153 22.5564C94.8091 22.4892 94.6566 22.3654 94.5257 22.1624L97.8868 19.9939ZM92.5344 20.5938V32H96.5344V20.5938H92.5344ZM94.5344 30H87.9563V34H94.5344V30ZM89.9563 32V6.70312H85.9563V32H89.9563ZM92.5344 11.0312V16.6562H96.5344V11.0312H92.5344ZM94.5344 18.6562C95.319 18.6562 96.3755 18.5767 97.2043 18.0143L94.9583 14.7044C95.0457 14.6451 95.1105 14.6194 95.1302 14.6122C95.1506 14.6047 95.1435 14.6093 95.0988 14.6179C95.0041 14.6361 94.8245 14.6562 94.5344 14.6562V18.6562ZM97.2167 18.0058C98.0112 17.4579 98.2682 16.602 98.3709 16.1523C98.4942 15.6125 98.5344 14.9996 98.5344 14.375H94.5344C94.5344 14.6104 94.5263 14.8027 94.5133 14.9565C94.5 15.1127 94.483 15.2103 94.4713 15.2618C94.4582 15.3193 94.4599 15.2822 94.5058 15.1941C94.5512 15.1069 94.6778 14.8977 94.9458 14.7129L97.2167 18.0058ZM98.5344 14.375V12.9844H94.5344V14.375H98.5344ZM98.5344 12.9844C98.5344 12.4789 98.4903 11.9517 98.3523 11.454C98.2161 10.9626 97.9483 10.359 97.3985 9.88774L94.7953 12.9248C94.6654 12.8134 94.5879 12.7019 94.5461 12.6277C94.5056 12.556 94.4952 12.5137 94.4977 12.5226C94.4999 12.5307 94.51 12.571 94.519 12.6529C94.5279 12.7337 94.5344 12.8428 94.5344 12.9844H98.5344ZM97.4256 9.91143C96.5523 9.13512 95.3599 9.03125 94.5344 9.03125V13.0312C94.6709 13.0312 94.7803 13.0369 94.8656 13.0452C94.9516 13.0536 95.0038 13.0638 95.0286 13.0698C95.0541 13.0759 95.0379 13.0745 94.994 13.054C94.9492 13.033 94.8651 12.9872 94.7682 12.9011L97.4256 9.91143Z" fill="white"/>
</svg>
